<?xml version="1.0" encoding="UTF-8"?>
<svg xmlns="http://www.w3.org/2000/svg" xmlns:xlink="http://www.w3.org/1999/xlink" width="192px" height="192px" viewBox="0 0 192 192" version="1.1">
<g id="surface1">
<path style=" stroke:none;fill-rule:nonzero;fill:rgb(0%,0%,0%);fill-opacity:1;" d="M 133.648438 12.132812 C 131.730469 1.710938 118.007812 -4.113281 107.8125 3.398438 C 102.46875 7.335938 97.6875 7.617188 95.148438 7.617188 C 92.617188 7.617188 89.804688 8.179688 82.488281 3.398438 C 71.894531 -3.53125 58.574219 1.710938 56.660156 12.128906 C 55.101562 20.601562 46.527344 71.226562 46.527344 71.226562 L 143.777344 71.226562 C 143.777344 71.226562 135.207031 20.601562 133.648438 12.132812 Z M 133.648438 12.132812 "/>
<path style=" stroke:none;fill-rule:nonzero;fill:rgb(0%,0%,0%);fill-opacity:1;" d="M 96 88.378906 L 7.367188 88.378906 C 7.367188 88.378906 22.839844 119.898438 96 119.898438 C 169.160156 119.898438 184.632812 88.378906 184.632812 88.378906 Z M 96 88.378906 "/>
<path style=" stroke:none;fill-rule:nonzero;fill:rgb(0%,0%,0%);fill-opacity:1;" d="M 138.199219 163.542969 C 134.523438 160.394531 130.800781 157.683594 127.332031 155.410156 L 127.332031 153.265625 L 64.816406 153.265625 L 64.816406 159.820312 L 94.777344 159.820312 C 95.445312 160.558594 100.683594 166.253906 108.492188 172.777344 C 112.660156 176.257812 117.558594 179.976562 122.902344 183.300781 C 128.246094 186.621094 134.035156 189.558594 140.023438 191.449219 L 141.769531 192 L 151.667969 178.167969 L 150.585938 176.691406 C 146.894531 171.675781 142.582031 167.296875 138.199219 163.542969 Z M 108.167969 165.84375 C 107.496094 165.246094 106.851562 164.667969 106.242188 164.105469 C 104.484375 162.488281 102.976562 161.027344 101.769531 159.820312 L 116.652344 159.820312 Z M 111.113281 168.394531 L 123.1875 159.824219 L 124.855469 159.824219 C 125.570312 160.292969 126.292969 160.777344 127.023438 161.289062 L 119.074219 174.648438 C 116.203125 172.558594 113.523438 170.433594 111.113281 168.394531 Z M 125.558594 179.015625 C 124.410156 178.304688 123.285156 177.570312 122.179688 176.820312 L 130.101562 163.515625 C 131.734375 164.738281 133.386719 166.050781 135.015625 167.457031 C 136.351562 168.601562 137.675781 169.808594 138.964844 171.066406 L 127.6875 180.300781 C 126.972656 179.882812 126.261719 179.457031 125.558594 179.015625 Z M 136.207031 184.402344 L 137.039062 185 C 135.089844 184.191406 133.15625 183.277344 131.246094 182.273438 L 141.621094 173.777344 C 142.039062 174.226562 142.441406 174.675781 142.847656 175.132812 Z M 136.207031 184.402344 "/>
</g>
</svg>
