<?xml version="1.0" encoding="UTF-8"?>
<svg xmlns="http://www.w3.org/2000/svg" xmlns:xlink="http://www.w3.org/1999/xlink" width="512px" height="512px" viewBox="0 0 512 512" version="1.1">
<g id="surface1">
<path style=" stroke:none;fill-rule:nonzero;fill:rgb(0%,0%,0%);fill-opacity:1;" d="M 356.390625 32.347656 C 351.28125 4.566406 314.6875 -10.964844 287.5 9.066406 C 273.25 19.566406 260.5 20.316406 253.734375 20.316406 C 246.984375 20.316406 239.484375 21.816406 219.96875 9.066406 C 191.71875 -9.417969 156.203125 4.566406 151.09375 32.347656 C 146.9375 54.941406 124.078125 189.941406 124.078125 189.941406 L 383.40625 189.941406 C 383.40625 189.941406 360.546875 54.941406 356.390625 32.347656 Z M 356.390625 32.347656 "/>
<path style=" stroke:none;fill-rule:nonzero;fill:rgb(0%,0%,0%);fill-opacity:1;" d="M 256 235.675781 L 19.640625 235.675781 C 19.640625 235.675781 60.90625 319.722656 256 319.722656 C 451.09375 319.722656 492.359375 235.675781 492.359375 235.675781 Z M 256 235.675781 "/>
<path style=" stroke:none;fill-rule:nonzero;fill:rgb(0%,0%,0%);fill-opacity:1;" d="M 368.53125 436.113281 C 358.734375 427.722656 348.796875 420.488281 339.546875 414.425781 L 339.546875 408.707031 L 172.84375 408.707031 L 172.84375 426.191406 L 252.734375 426.191406 C 254.515625 428.160156 268.484375 443.347656 289.3125 460.738281 C 300.421875 470.019531 313.484375 479.941406 327.734375 488.800781 C 341.984375 497.660156 357.421875 505.488281 373.390625 510.535156 L 378.046875 512.003906 L 404.453125 475.113281 L 401.5625 471.175781 C 391.71875 457.800781 380.21875 446.128906 368.53125 436.113281 Z M 288.453125 442.253906 C 286.65625 440.660156 284.9375 439.113281 283.3125 437.613281 C 278.625 433.300781 274.609375 429.410156 271.390625 426.191406 L 311.078125 426.191406 Z M 296.296875 449.050781 L 328.5 426.191406 L 332.953125 426.191406 C 334.859375 427.441406 336.78125 428.738281 338.734375 430.097656 L 317.53125 465.722656 C 309.875 460.160156 302.734375 454.488281 296.296875 449.050781 Z M 334.828125 477.378906 C 331.765625 475.472656 328.765625 473.519531 325.8125 471.519531 L 346.9375 436.035156 C 351.296875 439.304688 355.703125 442.804688 360.046875 446.554688 C 363.609375 449.601562 367.140625 452.820312 370.578125 456.179688 L 340.5 480.800781 C 338.59375 479.691406 336.703125 478.550781 334.828125 477.378906 Z M 363.21875 491.738281 L 365.4375 493.332031 C 360.234375 491.175781 355.078125 488.738281 349.984375 486.066406 L 377.65625 463.410156 C 378.765625 464.597656 379.84375 465.800781 380.921875 467.019531 Z M 363.21875 491.738281 "/>
</g>
</svg>
