<?xml version="1.0" standalone="no"?>
<!DOCTYPE svg PUBLIC "-//W3C//DTD SVG 20010904//EN"
 "http://www.w3.org/TR/2001/REC-SVG-20010904/DTD/svg10.dtd">
<svg version="1.0" xmlns="http://www.w3.org/2000/svg"
 width="626.000000pt" height="626.000000pt" viewBox="0 0 626.000000 626.000000"
 preserveAspectRatio="xMidYMid meet">

<g transform="translate(0.000000,626.000000) scale(0.100000,-0.100000)"
fill="#000000" stroke="none">
<path d="M0 3130 l0 -3130 3130 0 3130 0 0 3130 0 3130 -3130 0 -3130 0 0
-3130z m2830 1741 c-20 -12 -87 -25 -78 -16 4 4 22 11 40 15 45 11 56 11 38 1z
m-120 -31 c0 -5 -4 -10 -10 -10 -5 0 -10 5 -10 10 0 6 5 10 10 10 6 0 10 -4
10 -10z m-80 -24 c0 -2 -7 -7 -16 -10 -8 -3 -12 -2 -9 4 6 10 25 14 25 6z
m-50 -16 c0 -5 -2 -10 -4 -10 -3 0 -8 5 -11 10 -3 6 -1 10 4 10 6 0 11 -4 11
-10z m-20 -16 c0 -2 -7 -4 -15 -4 -8 0 -15 4 -15 10 0 5 7 7 15 4 8 -4 15 -8
15 -10z m-50 -14 c-20 -13 -33 -13 -25 0 3 6 14 10 23 10 15 0 15 -2 2 -10z
m-40 -8 c0 -13 -12 -22 -22 -16 -10 6 -1 24 13 24 5 0 9 -4 9 -8z m-35 -22 c4
-6 -1 -7 -11 -3 -13 5 -15 3 -9 -7 5 -9 4 -11 -4 -6 -6 4 -9 12 -6 17 8 12 22
12 30 -1z m-41 -17 c4 -10 4 -14 0 -10 -4 4 -13 -1 -20 -11 -11 -14 -15 -15
-26 -3 -11 12 -10 13 6 7 17 -6 17 -5 5 11 -12 15 -12 16 4 10 9 -3 17 -2 17
3 0 15 7 12 14 -7z m-67 -27 c0 -8 -6 -12 -14 -9 -8 3 -13 2 -12 -3 3 -20 -2
-28 -10 -15 -8 12 -11 12 -25 -1 -8 -9 -12 -19 -8 -22 3 -4 -2 -4 -12 0 -12 4
-17 4 -13 -2 3 -5 -2 -10 -11 -10 -9 -1 -26 -5 -37 -9 -11 -4 -5 4 14 18 19
15 38 24 42 21 5 -3 9 -1 9 4 0 7 55 40 71 41 3 1 6 -5 6 -13z m-152 -86 c13
-6 15 -9 5 -9 -8 0 -22 4 -30 9 -18 12 -2 12 25 0z m-27 -15 c-2 -2 -7 -4 -13
-5 -5 -1 -19 -7 -30 -12 -20 -11 -20 -10 -2 10 11 11 25 18 33 15 8 -3 14 -7
12 -8z m-3 -35 c-24 -25 -31 -27 -49 -18 -20 11 -20 11 4 21 14 6 30 9 37 8 6
-1 14 3 18 9 3 5 9 10 12 10 4 0 -6 -13 -22 -30z m-49 -34 c16 -17 19 -30 3
-21 -7 5 -8 -5 -4 -32 5 -28 4 -34 -4 -23 -8 12 -11 5 -13 -30 -1 -43 -2 -44
-5 -8 -2 21 0 53 6 73 5 21 6 35 0 35 -5 0 -9 5 -9 10 0 14 9 12 26 -4z m-9
-248 c-2 -13 -4 -3 -4 22 0 25 2 35 4 23 2 -13 2 -33 0 -45z m563 -272 c0 -2
-7 -7 -16 -10 -8 -3 -12 -2 -9 4 6 10 25 14 25 6z m-160 -80 c0 -2 -7 -7 -16
-10 -8 -3 -12 -2 -9 4 6 10 25 14 25 6z m-45 -26 c-3 -5 -12 -10 -18 -10 -7 0
-6 4 3 10 19 12 23 12 15 0z m-85 -45 c0 -2 -10 -9 -22 -15 -22 -11 -22 -10
-4 4 21 17 26 19 26 11z m1339 -74 c-6 -18 -14 -30 -17 -27 -2 3 1 19 8 36 7
17 14 29 16 27 2 -2 -1 -18 -7 -36z m-350 -85 c-3 -3 -11 5 -18 17 -13 21 -12
21 5 5 10 -10 16 -20 13 -22z m-1255 5 c3 -5 -1 -14 -9 -21 -8 -7 -15 -9 -15
-5 0 4 -9 -3 -19 -16 -11 -13 -23 -21 -27 -16 -4 4 5 21 21 37 30 31 40 36 49
21z m1573 -23 c-3 -7 -5 -2 -5 12 0 14 2 19 5 13 2 -7 2 -19 0 -25z m-1665
-60 c-7 -7 -12 -8 -12 -2 0 14 12 26 19 19 2 -3 -1 -11 -7 -17z m1365 0 c-3
-8 -6 -5 -6 6 -1 11 2 17 5 13 3 -3 4 -12 1 -19z m300 -30 c-3 -8 -6 -5 -6 6
-1 11 2 17 5 13 3 -3 4 -12 1 -19z m153 -362 c0 -2 -7 -7 -16 -10 -8 -3 -12
-2 -9 4 6 10 25 14 25 6z m-90 -51 c0 -2 -10 -9 -22 -15 -22 -11 -22 -10 -4 4
21 17 26 19 26 11z m-80 -50 c-7 -8 -17 -15 -23 -15 -6 0 -2 7 9 15 25 19 30
19 14 0z m-70 -41 c-8 -8 -23 -20 -34 -25 -13 -6 -10 0 9 15 34 29 43 33 25
10z m400 11 c0 -2 -10 -9 -22 -15 -22 -11 -22 -10 -4 4 21 17 26 19 26 11z
m-480 -59 c0 -8 -92 -67 -97 -63 -2 3 18 18 44 35 53 34 53 34 53 28z m365
-16 c-3 -5 -16 -15 -28 -21 -19 -9 -19 -8 3 10 28 23 34 26 25 11z m-503 -82
c-7 -7 -12 -8 -12 -2 0 6 3 14 7 17 3 4 9 5 12 2 2 -3 -1 -11 -7 -17z m-31
-21 c-10 -9 -11 -8 -5 6 3 10 9 15 12 12 3 -3 0 -11 -7 -18z m-41 -17 c0 -6
-11 -15 -25 -20 -14 -5 -25 -14 -25 -20 0 -6 -5 -8 -11 -5 -6 4 3 17 23 31 39
27 38 27 38 14z m-1100 -51 c0 -5 -4 -7 -10 -4 -12 8 -12 3 -1 -27 6 -16 4
-27 -6 -36 -12 -11 -13 -9 -9 14 3 16 0 31 -7 36 -9 6 -8 10 3 18 20 13 30 13
30 -1z m995 -19 c-3 -5 -16 -15 -28 -21 -21 -10 -21 -9 2 10 25 23 36 27 26
11z m-55 -34 c0 -2 -7 -7 -16 -10 -8 -3 -12 -2 -9 4 6 10 25 14 25 6z m-43
-51 c-8 -17 -15 -21 -22 -13 -7 7 -6 12 3 15 6 3 12 11 12 19 0 9 4 13 9 10 5
-4 4 -16 -2 -31z m-831 -12 c1 -10 5 -26 9 -37 6 -14 5 -18 -6 -14 -8 3 -14
13 -14 24 0 10 -5 19 -12 19 -6 0 -15 4 -20 9 -4 5 -3 7 2 3 6 -3 17 -2 25 4
8 5 15 9 15 9 1 0 1 -8 1 -17z m46 -85 c10 -10 25 -18 33 -18 18 0 20 -21 3
-39 -11 -10 -10 -11 5 -6 9 4 17 11 17 17 0 5 5 6 10 3 6 -4 4 -12 -6 -22 -12
-13 -20 -13 -40 -4 -21 9 -23 14 -14 31 10 19 5 24 -21 22 -3 0 -10 8 -17 19
-15 24 3 22 30 -3z m-92 -22 c0 -2 -7 -7 -16 -10 -8 -3 -12 -2 -9 4 6 10 25
14 25 6z m1957 -52 c-3 -3 -12 -4 -19 -1 -8 3 -5 6 6 6 11 1 17 -2 13 -5z
m-2347 -9 c0 -3 -12 -10 -26 -15 -14 -6 -22 -15 -19 -20 3 -6 -1 -13 -9 -16
-9 -3 -16 -12 -16 -20 0 -8 -5 -14 -11 -14 -5 0 -8 4 -4 9 3 5 1 12 -5 16 -5
3 -10 1 -10 -4 0 -6 -5 -11 -11 -11 -8 0 -8 4 1 14 6 8 19 12 27 9 11 -4 14
-2 9 5 -5 8 -2 10 9 6 10 -4 15 -2 13 6 -2 8 8 19 22 27 28 15 30 15 30 8z
m2450 -5 c8 -5 11 -10 5 -10 -5 0 -17 5 -25 10 -8 5 -10 10 -5 10 6 0 17 -5
25 -10z m64 -2 c-5 -8 -2 -9 9 -5 9 3 19 2 22 -3 4 -6 14 -10 23 -10 9 0 30
-11 46 -23 22 -18 26 -26 16 -32 -8 -5 -11 -4 -6 3 3 6 2 13 -4 17 -5 3 -10 1
-10 -6 0 -8 -5 -7 -16 2 -9 8 -22 14 -28 15 -43 4 -42 4 -26 14 12 8 10 10
-10 11 -14 1 -34 2 -45 1 -17 -1 -16 0 5 13 31 18 33 18 24 3z m-2150 -53 c3
-8 1 -15 -4 -15 -6 0 -10 7 -10 15 0 8 2 15 4 15 2 0 6 -7 10 -15z m-91 -90
c-3 -9 -8 -14 -10 -11 -3 3 -2 9 2 15 9 16 15 13 8 -4z m-6 -67 c-3 -7 -5 -2
-5 12 0 14 2 19 5 13 2 -7 2 -19 0 -25z m2218 12 c-11 -5 -29 -8 -40 -8 -16 0
-15 2 5 8 34 11 60 11 35 0z m-140 -10 c4 -6 15 -8 26 -5 11 4 19 2 19 -4 0
-14 -33 -14 -47 0 -9 9 -20 9 -44 0 -45 -16 -72 -13 -29 3 44 17 67 19 75 6z
m232 -27 c-7 -6 -46 10 -41 18 3 5 14 3 24 -3 11 -7 18 -13 17 -15z m-2317 0
c-8 -4 -21 -13 -28 -22 -11 -14 -11 -13 -2 7 6 12 18 22 28 21 14 0 14 -2 2
-6z m2360 -13 c8 -5 11 -10 5 -10 -5 0 -17 5 -25 10 -8 5 -10 10 -5 10 6 0 17
-5 25 -10z m-2344 -27 c-7 -7 -26 7 -26 19 0 6 6 6 15 -2 9 -7 13 -15 11 -17z
m381 1 c-3 -3 -12 -4 -19 -1 -8 3 -5 6 6 6 11 1 17 -2 13 -5z m-440 -26 c-3
-8 -6 -5 -6 6 -1 11 2 17 5 13 3 -3 4 -12 1 -19z m303 -2 c0 -2 -7 -7 -16 -10
-8 -3 -12 -2 -9 4 6 10 25 14 25 6z m-70 -26 c0 -5 -5 -10 -11 -10 -5 0 -7 5
-4 10 3 6 8 10 11 10 2 0 4 -4 4 -10z m-30 -8 c0 -4 -17 -14 -37 -22 -59 -23
-61 -23 -13 4 52 29 50 28 50 18z m-101 -46 c-11 -11 -103 -56 -113 -56 -12 1
94 59 108 60 5 0 7 -2 5 -4z m-124 -75 c-9 -8 -36 -10 -30 -2 2 4 11 8 20 8 8
0 13 -3 10 -6z m-48 -27 c-3 -3 -12 -4 -19 -1 -8 3 -5 6 6 6 11 1 17 -2 13 -5z
m-27 -21 c-8 -3 -23 -12 -32 -21 -11 -9 -18 -11 -18 -4 0 13 29 32 50 31 13
-1 13 -1 0 -6z m-109 -86 c-13 -12 -20 -15 -16 -7 14 26 28 41 33 35 3 -3 -5
-16 -17 -28z m-633 -348 c21 -7 50 -37 93 -95 33 -46 65 -84 69 -84 4 0 35 38
70 84 42 57 72 88 93 95 16 6 104 11 194 11 l164 0 -3 -97 -3 -98 -37 -3 -38
-3 0 -185 0 -184 40 0 40 0 0 -100 0 -100 -215 0 -215 0 0 100 0 100 45 0 45
0 0 118 0 117 -24 -30 c-14 -16 -53 -67 -88 -112 -35 -45 -66 -82 -69 -82 -4
-1 -42 45 -85 102 -42 56 -81 106 -86 112 -4 5 -8 -44 -8 -108 l0 -117 45 0
45 0 0 -100 0 -100 -215 0 -215 0 0 100 0 100 40 0 40 0 0 184 0 185 -37 3
-38 3 -3 98 -3 97 164 0 c92 0 178 -5 195 -11z m1381 -4 c23 -11 55 -67 164
-282 l135 -268 51 -3 51 -3 0 -100 0 -99 -210 0 -210 0 0 100 0 100 30 0 c34
0 34 -1 20 34 l-10 26 -134 0 c-124 0 -136 -2 -146 -19 -16 -32 -12 -41 20
-41 l30 0 0 -100 0 -100 -205 0 -205 0 0 100 0 100 44 0 45 0 105 183 106 182
-55 3 -55 3 0 99 0 100 200 0 c157 0 207 -3 229 -15z m1239 -107 l-3 -123 -87
-2 c-87 -1 -88 -1 -88 23 l0 24 -130 0 -130 0 0 -60 0 -60 120 0 120 0 0 -70
0 -70 -120 0 -120 0 0 -55 0 -55 45 0 45 0 0 -100 0 -100 -215 0 -215 0 0 100
0 100 45 0 45 0 0 185 0 185 -45 0 -45 0 0 100 0 100 390 0 391 0 -3 -122z
m510 25 l-3 -98 -42 -3 -43 -3 0 -185 0 -184 45 0 45 0 0 -100 0 -100 -215 0
-215 0 0 100 0 100 45 0 45 0 0 184 0 185 -42 3 -43 3 -3 98 -3 97 216 0 216
0 -3 -97z m687 83 c31 -13 45 -37 169 -285 l136 -271 50 0 50 0 0 -100 0 -100
-210 0 -210 0 0 100 0 100 30 0 c32 0 36 9 20 41 -10 17 -22 19 -145 19 -123
0 -135 -2 -145 -19 -16 -32 -12 -41 20 -41 l30 0 0 -100 0 -100 -205 0 -205 0
0 99 0 100 46 3 46 3 104 179 c57 98 104 180 104 182 0 2 -25 4 -55 4 l-55 0
0 100 0 100 195 0 c146 0 204 -4 230 -14z"/>
<path d="M2116 4553 c-6 -14 -5 -15 5 -6 7 7 10 15 7 18 -3 3 -9 -2 -12 -12z"/>
<path d="M2319 2603 c-13 -16 -12 -17 4 -4 9 7 17 15 17 17 0 8 -8 3 -21 -13z"/>
<path d="M1045 1230 l-90 -6 87 -2 c49 -1 89 2 93 8 3 6 5 9 3 8 -2 -1 -43 -5
-93 -8z"/>
<path d="M1313 1231 c43 -5 46 -7 28 -18 -13 -8 -22 -9 -26 -3 -3 6 -12 10
-18 10 -8 0 -8 -3 1 -9 8 -4 13 -11 13 -15 -2 -16 1 -23 25 -51 14 -16 24 -25
23 -20 -3 22 1 36 10 30 6 -3 15 3 21 14 7 13 7 22 0 26 -16 10 -12 21 9 22
15 1 18 -3 14 -15 -3 -9 -4 -15 -2 -12 41 49 45 45 -54 46 -64 1 -77 -1 -44
-5z m64 -32 c14 -14 5 -42 -9 -33 -6 4 -15 0 -20 -7 -7 -11 -8 -9 -4 5 5 13 2
17 -8 13 -8 -3 -17 1 -20 9 -3 8 -2 12 3 9 5 -3 12 -1 16 5 8 13 28 13 42 -1z"/>
<path d="M1350 1192 c0 -5 7 -9 15 -9 8 0 12 4 9 9 -3 4 -9 8 -15 8 -5 0 -9
-4 -9 -8z"/>
<path d="M1580 1228 c0 -5 42 -7 93 -6 94 1 82 5 -31 10 -34 2 -62 0 -62 -4z"/>
<path d="M1580 1106 c0 -9 5 -16 10 -16 6 0 10 4 10 9 0 6 -4 13 -10 16 -5 3
-10 -1 -10 -9z"/>
<path d="M1126 1071 c-4 -7 -5 -15 -2 -18 9 -9 19 4 14 18 -4 11 -6 11 -12 0z"/>
<path d="M1130 1030 c9 -6 11 -13 5 -17 -22 -17 -15 -33 11 -29 41 8 54 -3 54
-45 l0 -39 -162 -3 -163 -3 168 -2 167 -2 2 45 c0 25 1 51 2 58 1 8 -12 12
-39 11 -22 -1 -32 0 -22 3 9 2 17 9 17 14 0 6 -4 8 -9 4 -5 -3 -12 -1 -16 5
-3 5 -12 10 -18 10 -7 0 -6 -4 3 -10z"/>
<path d="M1198 1023 c7 -3 16 -2 19 1 4 3 -2 6 -13 5 -11 0 -14 -3 -6 -6z"/>
<path d="M1500 1020 c-17 -5 -19 -8 -7 -9 9 -1 17 -6 17 -12 0 -6 -6 -9 -14
-6 -11 4 -13 -3 -9 -36 8 -71 0 -67 145 -65 l133 2 -133 3 -133 4 3 42 c2 29
7 41 17 39 7 -1 19 5 26 15 7 10 17 14 21 10 5 -4 2 -12 -6 -17 -13 -8 -13
-10 1 -10 19 0 35 30 16 31 -7 0 -3 5 8 10 16 7 14 8 -9 3 -17 -3 -36 -13 -43
-22 -13 -15 -13 -15 -8 6 4 12 5 22 3 21 -2 -1 -14 -5 -28 -9z"/>
<path d="M1810 1021 c0 -6 5 -11 11 -11 8 0 8 -5 -1 -15 -7 -8 -8 -15 -3 -15
12 0 33 21 33 34 0 5 -3 6 -7 3 -3 -4 -12 -2 -20 4 -9 9 -13 8 -13 0z"/>
<path d="M874 1002 c0 -10 8 -19 19 -19 15 -2 16 1 7 13 -9 10 -9 14 -1 14 6
0 14 -7 17 -15 9 -21 20 -19 20 5 0 16 -7 20 -31 20 -23 0 -31 -5 -31 -18z"/>
<path d="M1226 989 c-3 -17 -5 -48 -5 -68 1 -24 4 -15 10 29 9 68 6 92 -5 39z"/>
<path d="M1787 1003 c5 -13 3 -15 -13 -9 -14 5 -16 4 -7 -5 6 -6 16 -8 22 -5
14 9 15 36 1 36 -5 0 -6 -8 -3 -17z"/>
<path d="M2427 1325 l-37 -75 74 0 75 0 -31 68 c-16 37 -33 70 -37 74 -4 4
-23 -26 -44 -67z"/>
<path d="M2175 1207 c-26 -43 -29 -51 -17 -44 5 4 15 0 22 -8 19 -23 30 -18
30 13 0 16 7 37 16 48 15 19 15 18 9 -3 -3 -12 -1 -25 6 -29 8 -5 10 -2 6 9
-3 9 1 18 11 22 9 3 18 1 20 -4 2 -6 10 -11 17 -11 7 0 15 -6 18 -14 5 -12 33
-16 131 -18 68 -2 123 -1 121 1 -6 5 17 26 38 34 18 7 24 37 7 37 -6 0 -9 -3
-9 -7 3 -20 -2 -26 -11 -13 -8 13 -11 11 -16 -7 -6 -22 -10 -23 -130 -23 -112
0 -152 8 -124 25 22 14 7 20 -50 20 -51 0 -60 -3 -60 -18 0 -10 -4 -16 -10
-12 -5 3 -7 12 -3 20 9 25 -1 17 -22 -18z m25 -40 c0 -18 -2 -19 -10 -7 -13
20 -13 43 0 35 6 -3 10 -16 10 -28z"/>
<path d="M2623 1200 c-7 -38 -7 -40 4 -40 4 0 7 12 8 27 0 26 4 28 47 33 l46
6 -3 -38 c-2 -21 1 -41 7 -44 7 -4 8 -2 4 4 -4 6 -1 20 6 31 10 16 15 18 27 8
12 -10 12 -9 1 10 -8 12 -17 20 -21 17 -4 -2 -9 1 -11 7 -2 6 -27 12 -56 13
-52 1 -52 1 -59 -34z"/>
<path d="M2260 1187 c0 -14 4 -28 9 -32 5 -3 8 6 7 20 -4 35 -16 44 -16 12z"/>
<path d="M2293 1176 c4 -10 3 -24 -3 -31 -6 -7 -7 -15 -3 -18 5 -3 13 5 20 19
9 19 8 26 -5 36 -14 11 -15 10 -9 -6z"/>
<path d="M2220 1160 c0 -11 4 -20 9 -20 5 0 7 9 4 20 -3 11 -7 20 -9 20 -2 0
-4 -9 -4 -20z"/>
<path d="M2580 1160 c0 -5 5 -10 11 -10 5 0 7 5 4 10 -3 6 -8 10 -11 10 -2 0
-4 -4 -4 -10z"/>
<path d="M2750 1161 c0 -6 5 -13 10 -16 6 -3 10 1 10 9 0 9 -4 16 -10 16 -5 0
-10 -4 -10 -9z"/>
<path d="M2130 1127 c-8 -12 -13 -28 -11 -36 1 -7 -2 -10 -8 -7 -5 4 -13 1
-16 -5 -12 -19 3 -21 29 -4 14 10 26 13 26 7 0 -6 -5 -13 -10 -15 -6 -3 -5 -4
2 -3 14 3 19 52 9 73 -5 9 -11 5 -21 -10z m15 -16 c-3 -6 -11 -11 -17 -11 -6
0 -6 6 2 15 14 17 26 13 15 -4z"/>
<path d="M2251 1128 c0 -13 -2 -38 -5 -56 -3 -22 0 -32 7 -29 7 2 11 18 11 35
-1 23 2 29 13 25 13 -5 12 -1 -2 20 -21 33 -23 33 -24 5z"/>
<path d="M2639 1131 c7 -5 11 -13 8 -17 -3 -5 1 -17 8 -27 12 -16 13 -15 12
10 -2 28 -13 43 -32 43 -5 0 -4 -4 4 -9z"/>
<path d="M2686 1105 c2 -25 -2 -38 -13 -42 -11 -4 -12 -8 -3 -13 7 -4 9 -13 6
-19 -4 -6 -12 -9 -17 -6 -5 4 -9 1 -9 -5 0 -7 8 -9 20 -5 11 4 20 2 20 -4 0
-6 -6 -11 -12 -12 -7 0 -23 -2 -35 -5 -16 -3 -23 1 -23 12 0 8 5 12 10 9 6 -3
10 -1 10 4 0 6 -7 11 -15 11 -8 0 -15 -8 -15 -17 0 -15 -2 -16 -10 -3 -8 13
-10 12 -10 -2 0 -10 7 -18 15 -18 11 0 15 -12 15 -45 0 -56 -17 -60 -23 -5
l-4 40 1 -42 c1 -36 4 -43 21 -44 17 -1 20 5 20 44 l0 46 40 1 c29 0 41 5 43
18 2 11 -3 17 -15 18 -16 0 -16 1 2 9 16 7 17 9 3 9 -9 1 -19 5 -22 10 -4 5 3
7 14 4 17 -5 20 -1 19 28 l-1 34 -8 -30 c-8 -28 -9 -28 -7 9 1 22 -3 41 -9 43
-7 2 -10 -9 -8 -32z"/>
<path d="M2820 1072 c-9 -4 -15 -21 -16 -41 -1 -30 1 -32 13 -15 16 22 17 38
1 28 -7 -4 -8 -3 -4 4 4 6 12 10 19 8 7 -1 9 -1 4 1 -4 3 -5 9 -1 14 6 10 5
10 -16 1z"/>
<path d="M2008 1021 c-13 -4 -15 -10 -8 -21 7 -10 10 -11 10 -2 0 6 5 12 11
12 5 0 8 -4 5 -9 -6 -10 33 -23 46 -15 4 3 8 11 8 17 0 7 -4 6 -10 -3 -9 -13
-13 -12 -28 6 -11 13 -24 18 -34 15z"/>
<path d="M2045 1020 c-3 -5 -1 -10 4 -10 6 0 11 5 11 10 0 6 -2 10 -4 10 -3 0
-8 -4 -11 -10z"/>
<path d="M2273 1013 c-3 -7 -9 -11 -13 -8 -4 3 -10 -1 -13 -8 -3 -8 9 -12 42
-13 25 0 40 1 34 3 -7 3 -13 9 -13 14 0 6 4 8 8 5 5 -3 9 0 9 7 0 16 -48 16
-54 0z m25 -18 c-3 -3 -9 2 -12 12 -6 14 -5 15 5 6 7 -7 10 -15 7 -18z"/>
<path d="M2885 1016 c-6 -6 -8 -35 -6 -66 l5 -55 6 65 c7 76 8 71 -5 56z"/>
<path d="M2921 1020 c-9 -5 -15 -29 -16 -62 -2 -33 -1 -38 2 -13 2 22 12 48
20 58 18 20 14 30 -6 17z"/>
<path d="M2838 1013 c6 -2 12 -9 12 -15 0 -6 -7 -7 -16 -4 -8 3 -12 2 -9 -3 3
-6 14 -9 24 -8 23 1 16 37 -8 36 -10 0 -11 -2 -3 -6z"/>
<path d="M2928 940 c-1 -28 0 -50 5 -50 4 0 7 23 7 50 0 65 -7 65 -12 0z"/>
<path d="M1993 940 c0 -25 2 -35 4 -22 2 12 2 32 0 45 -2 12 -4 2 -4 -23z"/>
<path d="M3170 1237 c-3 -3 -3 -46 0 -96 3 -53 1 -92 -5 -94 -5 -2 -4 -7 3
-11 7 -4 12 -2 12 4 0 6 5 8 10 5 6 -4 10 -3 9 2 -1 4 -1 45 0 91 l1 82 53 -1
c28 0 47 -3 40 -5 -8 -4 -8 -15 -1 -41 5 -20 8 -71 6 -114 -1 -42 0 -72 4 -66
4 7 8 45 8 85 0 54 3 73 13 70 6 -3 15 -24 18 -49 6 -39 6 -37 6 18 -1 34 -4
57 -8 51 -11 -17 -39 -1 -39 21 0 31 18 34 23 4 l4 -28 2 28 c1 20 6 27 22 27
11 0 18 -4 14 -9 -5 -9 40 -5 56 5 4 2 10 0 14 -6 3 -5 27 -9 53 -8 l47 1 -50
7 -50 7 48 1 c26 1 47 5 47 10 0 4 -76 7 -169 7 -93 0 -169 -2 -169 -5 0 -3
-1 -43 -3 -90 l-3 -85 -5 93 c-3 52 -8 92 -11 89z"/>
<path d="M3552 1220 c0 -14 2 -19 5 -12 2 6 2 18 0 25 -3 6 -5 1 -5 -13z"/>
<path d="M3577 1233 c-10 -9 -9 -33 1 -33 4 0 8 9 9 20 2 21 0 24 -10 13z"/>
<path d="M3320 1041 c0 -12 5 -21 10 -21 6 0 10 6 10 14 0 8 -4 18 -10 21 -5
3 -10 -3 -10 -14z"/>
<path d="M3075 1020 c-3 -4 7 -10 20 -13 14 -2 28 -1 30 3 3 4 -7 10 -20 13
-14 2 -28 1 -30 -3z"/>
<path d="M3131 1007 c-8 -12 -19 -16 -39 -12 -22 4 -24 4 -7 -4 11 -5 14 -10
8 -10 -18 -1 -18 -91 0 -91 8 0 11 14 9 45 -4 48 -6 47 58 49 28 1 35 5 36 22
1 17 -5 21 -27 20 -15 -1 -32 -9 -38 -19z m29 -7 c0 -5 -5 -10 -11 -10 -5 0
-7 5 -4 10 3 6 8 10 11 10 2 0 4 -4 4 -10z m30 0 c0 -5 -2 -10 -4 -10 -3 0 -8
5 -11 10 -3 6 -1 10 4 10 6 0 11 -4 11 -10z"/>
<path d="M3426 1019 c5 -8 -6 -10 -34 -7 -23 2 -38 0 -33 -5 12 -12 74 -4 79
11 2 6 -1 12 -8 12 -6 0 -8 -5 -4 -11z"/>
<path d="M3322 998 c-8 -10 -3 -13 19 -14 16 -1 28 -1 27 0 -2 1 -10 7 -19 14
-13 10 -19 10 -27 0z"/>
<path d="M3198 893 c45 -2 119 -2 165 0 45 1 8 3 -83 3 -91 0 -128 -2 -82 -3z"/>
<path d="M4025 1218 c-3 -13 -4 -55 -2 -93 l3 -70 2 82 c3 112 22 120 22 9 0
-70 -3 -87 -17 -95 -16 -9 -16 -10 -1 -11 9 0 19 6 21 13 3 6 6 2 6 -11 1 -13
-3 -20 -9 -17 -5 3 -10 2 -10 -2 0 -5 8 -13 19 -20 17 -11 19 -9 18 20 0 18 0
69 1 114 l2 82 43 4 c41 4 40 4 -8 4 -27 0 -58 4 -67 8 -13 5 -19 1 -23 -17z
m42 -120 c-2 -24 -4 -5 -4 42 0 47 2 66 4 43 2 -24 2 -62 0 -85z"/>
<path d="M4191 1233 c6 -36 -3 -193 -10 -188 -5 3 -12 1 -16 -5 -9 -14 18 -13
33 2 15 15 17 198 2 198 -5 0 -9 -3 -9 -7z"/>
<path d="M4173 1100 c0 -25 2 -35 4 -22 2 12 2 32 0 45 -2 12 -4 2 -4 -23z"/>
<path d="M3940 1023 c0 -6 5 -15 10 -18 6 -3 11 -30 12 -58 l1 -52 6 45 6 45
43 -1 c48 -1 49 3 3 16 -20 5 -33 5 -37 -2 -4 -7 -14 -1 -25 13 -10 13 -19 19
-19 12z"/>
<path d="M3970 1020 c0 -5 5 -10 10 -10 6 0 10 5 10 10 0 6 -4 10 -10 10 -5 0
-10 -4 -10 -10z"/>
<path d="M4005 1020 c-3 -5 1 -10 9 -10 9 0 16 5 16 10 0 6 -4 10 -9 10 -6 0
-13 -4 -16 -10z"/>
<path d="M4200 1022 c0 -5 11 -12 25 -14 14 -3 25 -1 25 3 0 5 -4 9 -9 9 -5 0
-16 3 -25 6 -9 3 -16 2 -16 -4z"/>
<path d="M4262 1013 c-2 -20 -6 -22 -34 -16 -18 3 -36 11 -40 17 -5 7 -10 7
-17 1 -13 -14 8 -30 39 -30 22 0 25 -5 28 -42 l3 -42 -123 -4 -123 -3 133 -2
c104 -2 134 1 138 12 3 7 3 40 1 72 -2 33 -4 49 -5 37z m-5 -95 c-2 -13 -4 -3
-4 22 0 25 2 35 4 23 2 -13 2 -33 0 -45z"/>
<path d="M4280 994 c0 -8 5 -12 10 -9 6 3 10 10 10 16 0 5 -4 9 -10 9 -5 0
-10 -7 -10 -16z"/>
<path d="M3983 940 c0 -25 2 -35 4 -22 2 12 2 32 0 45 -2 12 -4 2 -4 -23z"/>
<path d="M4867 1325 l-37 -75 75 0 74 0 -30 68 c-17 37 -34 70 -37 74 -4 4
-24 -26 -45 -67z"/>
<path d="M4700 1232 c-71 -5 -83 -11 -77 -37 4 -24 -8 -36 -15 -15 -2 6 -9 1
-16 -11 -8 -12 -9 -18 -4 -15 16 10 41 -4 35 -20 -3 -8 0 -14 5 -14 6 0 10 20
9 48 l-2 47 63 0 c49 0 62 3 61 15 0 12 -2 12 -6 1 -3 -7 -8 -9 -12 -5 -3 5
-22 8 -41 6z"/>
<path d="M5035 1224 c38 -28 15 -34 -125 -34 -129 0 -139 1 -133 18 7 16 6 16
-11 0 -21 -21 -33 -23 -39 -5 -2 6 -4 0 -3 -15 0 -14 4 -24 9 -21 4 2 7 0 7
-5 0 -6 -7 -13 -16 -16 -8 -3 -12 -11 -8 -18 5 -8 13 -4 27 13 19 23 24 24
165 26 l146 3 18 -28 c10 -15 18 -22 18 -16 0 5 -6 16 -12 23 -11 11 -10 13 5
7 10 -3 21 -6 23 -6 9 0 3 -20 -12 -34 -10 -10 -11 -16 -4 -16 7 0 10 -7 6
-15 -3 -8 -1 -15 4 -15 5 0 11 -8 13 -17 3 -10 4 -7 3 7 -1 14 -5 31 -9 38 -5
6 -4 12 0 12 5 0 9 9 10 20 2 19 -32 47 -49 42 -5 -1 -8 8 -7 21 0 12 3 16 6
10 2 -7 11 -13 18 -13 7 0 15 -6 18 -12 2 -8 8 -9 13 -4 5 5 4 11 -3 13 -7 3
-13 12 -13 21 0 13 2 14 9 4 7 -11 10 -10 15 3 4 12 13 15 35 10 16 -3 32 -2
35 4 5 7 -24 10 -84 8 -69 -1 -86 -5 -75 -13z m-242 -51 c-7 -2 -21 -2 -30 0
-10 3 -4 5 12 5 17 0 24 -2 18 -5z"/>
<path d="M5204 1168 c-4 -7 -4 -10 1 -6 4 4 14 3 22 -4 11 -8 12 -7 7 6 -7 19
-20 21 -30 4z"/>
<path d="M4582 1134 c-12 -8 -26 -23 -31 -32 -8 -14 -5 -18 11 -19 25 -2 60
28 40 35 -10 3 -10 7 -1 18 15 18 9 18 -19 -2z m8 -24 c0 -5 -7 -10 -16 -10
-8 0 -12 5 -9 10 3 6 10 10 16 10 5 0 9 -4 9 -10z"/>
<path d="M5202 1128 c2 -13 7 -21 11 -18 10 6 30 -27 23 -38 -7 -11 31 -8 41
3 5 4 2 5 -4 1 -8 -4 -13 -1 -13 9 0 9 -5 26 -11 37 -11 21 -12 21 -27 2 -14
-18 -14 -18 -9 4 3 12 1 22 -5 22 -5 0 -8 -10 -6 -22z m48 -33 c0 -5 -5 -3
-10 5 -5 8 -10 20 -10 25 0 6 5 3 10 -5 5 -8 10 -19 10 -25z"/>
<path d="M4650 1130 c0 -8 -14 -24 -30 -35 -28 -19 -39 -35 -22 -35 4 1 23 14
42 30 27 23 31 33 22 42 -9 9 -12 9 -12 -2z"/>
<path d="M4680 1120 c0 -9 39 -25 46 -18 2 3 -7 10 -21 16 -14 6 -25 7 -25 2z"/>
<path d="M4670 1091 c0 -5 6 -11 13 -14 6 -2 9 -7 5 -11 -3 -4 -15 -3 -27 3
-14 8 -22 8 -27 -1 -5 -7 -3 -8 6 -3 10 6 12 4 6 -10 -5 -14 -4 -16 7 -7 23
19 27 2 5 -20 -15 -15 -17 -22 -8 -28 9 -6 9 -9 -1 -13 -8 -2 8 -3 34 -1 l49
3 -4 -49 c-1 -26 0 -46 5 -43 4 2 7 26 7 54 l0 49 -40 0 c-22 0 -40 3 -40 8 0
4 22 5 50 4 30 -3 50 0 50 6 0 7 -18 9 -46 6 -32 -4 -44 -2 -39 5 3 6 11 8 17
5 7 -5 9 -1 5 9 -3 9 -2 19 3 22 6 4 10 11 10 16 0 6 -4 7 -10 4 -5 -3 -10 -1
-10 4 0 6 -4 11 -10 11 -5 0 -10 -4 -10 -9z"/>
<path d="M4524 1058 c-2 -3 0 -9 6 -13 21 -13 9 -21 -25 -17 -40 5 -43 0 -16
-27 20 -20 20 -20 27 1 5 16 8 18 15 7 7 -12 9 -12 9 0 0 8 3 11 7 7 5 -4 -1
-14 -12 -23 -20 -15 -20 -15 0 -11 22 4 29 47 11 60 -6 4 0 11 14 17 l25 10
-28 -2 c-16 -1 -31 -5 -33 -9z"/>
<path d="M4435 1020 c-3 -5 -2 -10 4 -10 5 0 13 5 16 10 3 6 2 10 -4 10 -5 0
-13 -4 -16 -10z"/>
<path d="M5035 1020 c-3 -5 -1 -10 4 -10 6 0 11 5 11 10 0 6 -2 10 -4 10 -3 0
-8 -4 -11 -10z"/>
<path d="M5296 1016 c10 -8 16 -18 11 -22 -4 -4 -7 -2 -7 5 0 7 -5 9 -11 5
-19 -11 11 -23 49 -18 l34 4 -4 -49 c-4 -63 8 -53 15 13 l5 48 -34 -5 c-19 -3
-34 -2 -34 3 0 5 15 11 33 13 28 4 27 4 -5 3 -21 -1 -38 2 -38 6 0 5 -8 8 -17
8 -15 0 -14 -2 3 -14z"/>
<path d="M5060 1010 c0 -5 -7 -10 -15 -10 -8 0 -15 -4 -15 -10 0 -14 23 -8 36
9 10 13 14 13 28 -2 21 -21 23 -21 23 -2 0 8 -4 12 -9 9 -4 -3 -8 0 -8 5 0 6
-9 11 -20 11 -11 0 -20 -4 -20 -10z"/>
<path d="M4430 951 c0 -28 3 -52 8 -55 4 -2 6 14 3 37 -2 31 1 44 15 54 17 12
17 13 -4 13 -20 0 -22 -5 -22 -49z"/>
<path d="M4750 947 c0 -36 4 -56 10 -52 13 8 13 75 0 95 -7 11 -10 -2 -10 -43z"/>
</g>
</svg>
